<svg xmlns="http://www.w3.org/2000/svg" width="379" height="48" viewBox="0 0 379 48">
    <g fill="none" fill-rule="evenodd">
        <path fill="#FF7814" d="M141.123 13.274c7.92 0 11.67 4.525 11.67 4.525l-3.334 5.18s-3.155-3.274-7.92-3.274c-5.597 0-9.23 4.227-9.23 9.408 0 5.12 3.693 9.527 9.469 9.527 5.12 0 8.932-3.87 8.932-3.87l2.918 5.358s-4.347 4.943-12.505 4.943c-10.063 0-16.494-7.086-16.494-15.898 0-8.635 6.43-15.9 16.494-15.9zM157.378 2.078h7.502v31.68c0 3.334 1.133 4.166 3.097 4.166.596 0 1.13-.058 1.13-.058v6.61s-1.13.178-2.38.178c-4.168 0-9.35-1.073-9.35-9.766V2.078zM173.217 8.808h7.503v-6.73h-7.503v6.73zm0 35.548h7.562V13.988h-7.562v30.368zM201.917 13.274c7.919 0 11.67 4.525 11.67 4.525l-3.335 5.18s-3.154-3.274-7.918-3.274c-5.598 0-9.23 4.227-9.23 9.408 0 5.12 3.692 9.527 9.468 9.527 5.12 0 8.93-3.87 8.93-3.87l2.919 5.358s-4.347 4.943-12.504 4.943c-10.063 0-16.495-7.086-16.495-15.898 0-8.635 6.432-15.9 16.495-15.9M218.588 2.078h7.562v22.627h3.752l7.325-10.718h8.396l-9.587 13.577v.12l10.778 16.671h-8.694l-8.04-13.278h-3.93v13.278h-7.562z"/>
        <path fill="#393F4D" d="M251.276 20.478h-3.93v-6.014h4.11V5.711h7.383v8.753h6.91v6.014h-6.91v11.79c0 5.002 3.93 5.717 6.014 5.717.834 0 1.37-.119 1.37-.119v6.61s-.893.178-2.32.178c-4.23 0-12.627-1.25-12.627-11.434V20.478zM270.926 13.988h7.266v5.24c0 1.132-.12 2.144-.12 2.144h.12c1.368-4.347 5.001-7.801 9.645-7.801.714 0 1.37.12 1.37.12v7.443s-.774-.12-1.786-.12c-3.216 0-6.849 1.847-8.277 6.372-.478 1.489-.656 3.156-.656 4.942v12.028h-7.562V13.988zM308.26 25.302h1.012v-.417c0-3.99-2.501-5.36-5.835-5.36-4.348 0-8.336 2.919-8.336 2.919l-2.86-5.42s4.707-3.75 11.91-3.75c7.98 0 12.625 4.406 12.625 12.088v18.994h-6.968v-2.5c0-1.191.12-2.143.12-2.143h-.12c.058 0-2.322 5.359-9.23 5.359-5.418 0-10.3-3.395-10.3-9.468 0-9.647 13.04-10.302 17.982-10.302m-5.775 13.874c3.99 0 6.846-4.287 6.846-7.98v-.713h-1.31c-3.87 0-10.122.535-10.122 4.763 0 2.025 1.488 3.93 4.586 3.93M323.145 13.988h7.265v3.514c0 1.13-.119 2.083-.119 2.083h.12c1.308-2.56 4.643-6.311 10.776-6.311 6.73 0 10.54 3.513 10.54 11.55v19.532h-7.503V26.374c0-3.692-.953-6.193-4.823-6.193-4.049 0-7.027 2.56-8.157 6.193-.418 1.25-.537 2.62-.537 4.048v13.934h-7.562V13.988zM359.05 35.306s3.334 3.334 8.277 3.334c2.144 0 3.99-.953 3.99-2.739 0-4.527-14.768-3.93-14.768-13.696 0-5.656 5.062-8.931 11.61-8.931 6.849 0 10.185 3.453 10.185 3.453l-2.8 5.598s-2.8-2.62-7.442-2.62c-1.966 0-3.87.833-3.87 2.739 0 4.287 14.766 3.752 14.766 13.515 0 5.063-4.407 9.112-11.611 9.112-7.563 0-11.79-4.466-11.79-4.466l3.454-5.3z"/>
        <path fill="#FF7814" d="M67.09.132c-.762-.317-.975-.041-.471.614l4.178 5.434c.503.655.26 1.358-.541 1.56L20.47 20.42c-.801.204-.78.372.046.372h94.778c.826 0 .878-.261.115-.577L67.09.132z"/>
        <path fill="#393F4D" d="M48.86 47.018c.762.316.975.041.47-.615l-4.178-5.433c-.503-.656-.26-1.359.541-1.562L95.48 26.73c.801-.204.781-.37-.046-.37H.655c-.826 0-.878.26-.115.576l48.32 20.083z"/>
    </g>
</svg>
